<svg width="68" height="18" viewBox="0 0 68 18" fill="none" xmlns="http://www.w3.org/2000/svg">
<rect width="68" height="18" fill="#1E1E1E"/>
<g id="&#235;&#143;&#132;&#236;&#160;&#132;">
<g clip-path="url(#clip0_3_166)">
<rect x="-24" y="-71" width="412" height="917" rx="24" fill="#F2F2F2"/>
<g id="Frame 2080012761">
<g id="Frame 2080012762">
<path id="Vector" d="M0 0.917057H2.89119L8.4941 9.97313L14.097 0.917057H16.9882V17.1028H13.3592V8.22547L9.59073 14.4416H7.39745L3.62894 8.22547V17.1028H0V0.917057ZM27.9167 17.5C26.2551 17.5 24.7531 17.1293 23.4105 16.3878C22.0812 15.6597 21.0377 14.6534 20.28 13.3692C19.5223 12.0716 19.1435 10.6153 19.1435 9C19.1435 7.38473 19.5223 5.93497 20.28 4.6507C21.0377 3.35319 22.0812 2.34034 23.4105 1.61215C24.7531 0.870716 26.2551 0.5 27.9167 0.5C29.5784 0.5 31.0738 0.870716 32.4031 1.61215C33.7457 2.34034 34.7958 3.35319 35.5535 4.6507C36.3111 5.93497 36.69 7.38473 36.69 9C36.69 10.6153 36.3111 12.0716 35.5535 13.3692C34.7958 14.6534 33.7457 15.6597 32.4031 16.3878C31.0738 17.1293 29.5784 17.5 27.9167 17.5ZM27.9167 14.243C28.8871 14.243 29.7644 14.0179 30.5487 13.5678C31.333 13.1176 31.9445 12.4953 32.3831 11.7009C32.835 10.8933 33.0611 9.99299 33.0611 9C33.0611 7.99377 32.835 7.09346 32.3831 6.29907C31.9445 5.50467 31.333 4.8824 30.5487 4.43224C29.7644 3.98209 28.8871 3.75701 27.9167 3.75701C26.9464 3.75701 26.0691 3.98209 25.2848 4.43224C24.5005 4.8824 23.8823 5.50467 23.4304 6.29907C22.9918 7.09346 22.7724 7.99377 22.7724 9C22.7724 9.99299 22.9918 10.8933 23.4304 11.7009C23.8823 12.4953 24.5005 13.1176 25.2848 13.5678C26.0691 14.0179 26.9464 14.243 27.9167 14.243ZM42.4753 0.917057V13.9054H50.5906V17.1028H38.8464V0.917057H42.4753ZM62.8158 13.965H56.515L55.3785 17.1028H51.6299L57.9307 0.917057H61.6992L68 17.1028H63.9523L62.8158 13.965ZM61.6992 10.8271L59.6654 5.18692L57.6316 10.8271H61.6992Z" fill="#24BD40"/>
</g>
</g>
</g>
</g>
<defs>
<clipPath id="clip0_3_166">
<rect x="-24" y="-71" width="412" height="917" rx="24" fill="white"/>
</clipPath>
</defs>
</svg>
